<?xml version="1.0" encoding="utf-8"?>
<svg version="1.1" id="Layer_1" x="0px" y="0px" viewBox="0 0 400 400" style="enable-background:new 0 0 512 512;" preserveAspectRatio="xMidYMid slice" xmlns="http://www.w3.org/2000/svg">
  <style type="text/css">
	.st0{fill:#0F133C;}
</style>
  <g transform="matrix(1, 0, 0, 1, -46.1185, -78.115608)">
    <path class="st0" d="M 137.4 215.6 C 127 215.6 118.5 224.1 118.5 234.5 C 118.5 244.9 127 253.4 137.4 253.4 C 147.8 253.4 156.3 244.9 156.3 234.5 C 156.3 224.1 147.8 215.6 137.4 215.6 Z M 137.4 242.9 C 132.8 242.9 129 239.1 129 234.5 C 129 229.9 132.8 226.1 137.4 226.1 C 142 226.1 145.8 229.9 145.8 234.5 C 145.8 239.1 142.1 242.9 137.4 242.9 Z"/>
    <path class="st0" d="M 311.4 213.2 C 311.7 210.6 311.8 208 311.8 205.4 C 311.8 176.2 294.5 149.5 267.8 137.6 L 265.7 136.6 L 265.7 112.2 C 265.7 99.8 255.7 89.8 243.3 89.8 L 231.7 89.8 C 219.3 89.8 209.3 99.8 209.3 112.2 L 209.3 136.6 L 207.2 137.6 C 197.8 141.8 189.5 147.9 182.8 155.3 C 160.1 160.9 139.6 174 124.9 192.3 C 114.9 204.7 107.8 219.3 104.1 234.7 L 67.3 257.8 L 102.4 278.3 C 103.7 285.7 102.477 315.865 121.577 342.965 C 134.677 361.565 151.577 377.465 171.677 390.365 C 196.677 406.365 212.68 413.614 247.08 419.714 L 294.956 421.367 L 422.688 417.8 L 311.4 213.2 Z M 99.5 264.3 L 87.5 257.3 L 100 249.4 L 99.5 264.3 Z M 219.8 112.1 C 219.8 105.5 225.2 100.2 231.7 100.2 L 243.3 100.2 C 249.9 100.2 255.2 105.6 255.2 112.1 L 255.2 170.9 C 255.2 176.4 251.4 181 246.3 182.4 L 246.3 203.1 C 246.3 206.4 243.6 209.1 240.3 209.1 L 234.5 209.1 C 231.2 209.1 228.5 206.4 228.5 203.1 L 228.5 182.4 C 223.4 181 219.6 176.4 219.6 170.9 L 219.6 112.1 L 219.8 112.1 Z M 212.9 183 C 214.3 185.2 216.1 187.1 218.2 188.7 L 218.2 203.1 C 218.2 212.2 225.6 219.5 234.6 219.5 L 240.4 219.5 C 249.5 219.5 256.8 212.1 256.8 203.1 L 256.8 188.7 C 258.9 187.1 260.7 185.2 262.1 183 C 267.7 189.1 270.7 197 270.7 205.3 C 270.7 223.6 255.8 238.5 237.5 238.5 C 219.2 238.5 204.3 223.6 204.3 205.3 C 204.3 197 207.3 189.2 212.9 183 Z M 204.1 151 L 204.1 170.9 C 204.1 172.8 204.3 174.6 204.7 176.5 C 197.7 184.5 193.8 194.6 193.8 205.3 C 193.8 229.4 213.4 249 237.5 249 C 261.6 249 281.2 229.4 281.2 205.3 C 281.2 194.6 277.4 184.4 270.3 176.5 C 270.7 174.7 270.9 172.8 270.9 170.9 L 270.9 151 C 289.6 162.5 301.3 183 301.3 205.3 C 301.3 240.5 272.7 269.1 237.5 269.1 C 202.3 269.1 173.7 240.5 173.7 205.3 C 173.7 183.1 185.4 162.5 204.1 151 Z M 130.477 337.165 C 124.977 329.465 120.577 321.765 117.077 314.465 C 123.877 316.865 134.877 321.565 148.177 330.065 C 166.777 341.965 193.477 363.765 218.777 401.365 C 203.777 395.965 190.077 389.365 177.677 381.465 C 158.777 369.465 142.877 354.465 130.477 337.165 Z M 362.88 407.3 L 339.188 407.3 L 299.75 349.033 L 292.35 356.433 L 324.388 407.3 L 308.394 409.353 C 299.126 406.182 253.125 410.481 234.928 404.205 C 206.528 358.005 174.677 334.465 153.277 320.865 C 129.577 305.865 119.5 296.5 118.8 296.3 L 118.7 296.9 C 115.8 289.3 114 282.7 113 278 L 113.3 277.8 L 112.7 274.1 C 111.9 268.6 111.5 263.9 111.5 259.4 C 111.5 237 118.9 216 132.9 198.6 C 143.4 185.6 157 175.5 172.3 169.4 C 166.3 180.2 163 192.5 163 205.3 C 163 246.3 196.3 279.6 237.3 279.6 C 271 279.6 299.5 257.1 308.6 226.3 C 308.6 226.2 308.7 226.1 308.7 226 L 399.088 407.2 L 377.58 407.2 L 343.362 350.589 L 335.962 357.989 L 362.88 407.3 Z"/>
  </g>
</svg>